<svg width="260" height="62" viewBox="0 0 260 62" fill="none" xmlns="http://www.w3.org/2000/svg">
<path d="M86.8015 0.690809L70.9644 61.3092H53.0502L43.3575 21.415L33.3186 61.3092H15.4045L0 0.690809H15.8372L24.5779 44.8162L35.3956 0.690809H51.6655L62.0505 44.8162L70.8778 0.690809H86.8015Z" fill="white"/>
<path d="M109.022 0.690809V61.3092L94.2232 56.3092V5.69081L109.022 0.690809Z" fill="white"/>
<path d="M117.237 30.9137C117.237 24.9267 118.535 19.6017 121.131 14.9387C123.727 10.2182 127.333 6.56267 131.949 3.97215C136.622 1.32405 141.901 0 147.786 0C154.998 0 161.171 1.89972 166.306 5.69916C171.441 9.49861 174.873 14.6797 176.604 21.2423H160.334C159.123 18.7094 157.392 16.7809 155.142 15.4568C152.949 14.1328 150.44 13.4708 147.613 13.4708C143.055 13.4708 139.362 15.0539 136.535 18.2201C133.708 21.3863 132.295 25.6175 132.295 30.9137C132.295 36.2098 133.708 40.441 136.535 43.6072C139.362 46.7734 143.055 48.3565 147.613 48.3565C150.44 48.3565 152.949 47.6945 155.142 46.3705C157.392 45.0464 159.123 43.1179 160.334 40.585H176.604C174.873 47.1476 171.441 52.3287 166.306 56.1281C161.171 59.87 154.998 61.7409 147.786 61.7409C141.901 61.7409 136.622 60.4457 131.949 57.8552C127.333 55.2071 123.727 51.5515 121.131 46.8886C118.535 42.2256 117.237 36.9007 117.237 30.9137Z" fill="white"/>
<path d="M208.427 0.690809C214.831 0.690809 220.428 1.95729 225.216 4.49025C230.005 7.02321 233.698 10.5924 236.294 15.1978C238.948 19.7456 240.275 25.013 240.275 31C240.275 36.9294 238.948 42.1968 236.294 46.8022C233.698 51.4076 229.976 54.9768 225.13 57.5097C220.341 60.0427 214.774 61.3092 208.427 61.3092H185.667V0.690809H208.427ZM207.475 48.5292C213.072 48.5292 217.428 47.0037 220.543 43.9526C223.659 40.9016 225.216 36.584 225.216 31C225.216 25.416 223.659 21.0696 220.543 17.961C217.428 14.8524 213.072 13.298 207.475 13.298H200.465V48.5292H207.475Z" fill="#4BC9C7"/>
<path d="M251.259 62C248.663 62 246.528 61.2516 244.855 59.7549C243.24 58.2006 242.432 56.3008 242.432 54.0557C242.432 51.753 243.24 49.8245 244.855 48.2702C246.528 46.7159 248.663 45.9387 251.259 45.9387C253.798 45.9387 255.875 46.7159 257.49 48.2702C259.163 49.8245 260 51.753 260 54.0557C260 56.3008 259.163 58.2006 257.49 59.7549C255.875 61.2516 253.798 62 251.259 62Z" fill="white"/>
</svg>
