<svg width="72" height="18" viewBox="0 0 72 18" fill="none" xmlns="http://www.w3.org/2000/svg">
<path d="M24.0373 0.193642L19.6517 17.1857H14.6908L12.0067 6.00288L9.2267 17.1857H4.26585L0 0.193642H4.38568L6.80619 12.5625L9.80187 0.193642H14.3074L17.1832 12.5625L19.6277 0.193642H24.0373Z" fill="white"/>
<path d="M30.1907 0.193642V17.1857L26.0926 15.7841V1.5952L30.1907 0.193642Z" fill="white"/>
<path d="M32.4655 8.66545C32.4655 6.98723 32.825 5.49457 33.544 4.18749C34.2629 2.86428 35.2615 1.83959 36.5396 1.11344C37.8338 0.371146 39.2957 0 40.9253 0C42.9224 0 44.632 0.532514 46.0539 1.59754C47.4759 2.66257 48.4265 4.11488 48.9058 5.95447H44.4003C44.0648 5.24445 43.5855 4.70387 42.9624 4.33273C42.3552 3.96158 41.6603 3.77601 40.8774 3.77601C39.6152 3.77601 38.5927 4.21977 37.8098 5.10729C37.0269 5.99481 36.6355 7.18087 36.6355 8.66545C36.6355 10.15 37.0269 11.3361 37.8098 12.2236C38.5927 13.1111 39.6152 13.5549 40.8774 13.5549C41.6603 13.5549 42.3552 13.3693 42.9624 12.9982C43.5855 12.627 44.0648 12.0864 44.4003 11.3764H48.9058C48.4265 13.216 47.4759 14.6683 46.0539 15.7334C44.632 16.7822 42.9224 17.3067 40.9253 17.3067C39.2957 17.3067 37.8338 16.9436 36.5396 16.2175C35.2615 15.4752 34.2629 14.4505 33.544 13.1434C32.825 11.8363 32.4655 10.3437 32.4655 8.66545Z" fill="white"/>
<path d="M57.7183 0.193642C59.4918 0.193642 61.0416 0.548651 62.3676 1.25867C63.6937 1.96869 64.7163 2.96917 65.4352 4.26011C66.1702 5.53491 66.5376 7.01143 66.5376 8.68966C66.5376 10.3517 66.1702 11.8283 65.4352 13.1192C64.7163 14.4101 63.6857 15.4106 62.3437 16.1206C61.0176 16.8307 59.4758 17.1857 57.7183 17.1857H51.4154V0.193642H57.7183ZM57.4547 13.6033C59.0045 13.6033 60.2108 13.1757 61.0735 12.3204C61.9363 11.4652 62.3676 10.2549 62.3676 8.68966C62.3676 7.12439 61.9363 5.90606 61.0735 5.03467C60.2108 4.16329 59.0045 3.72759 57.4547 3.72759H55.5135V13.6033H57.4547Z" fill="#4BC9C7"/>
<path d="M69.5795 17.3793C68.8605 17.3793 68.2694 17.1695 67.8061 16.75C67.3587 16.3143 67.135 15.7818 67.135 15.1524C67.135 14.507 67.3587 13.9664 67.8061 13.5307C68.2694 13.095 68.8605 12.8771 69.5795 12.8771C70.2825 12.8771 70.8576 13.095 71.305 13.5307C71.7683 13.9664 72 14.507 72 15.1524C72 15.7818 71.7683 16.3143 71.305 16.75C70.8576 17.1695 70.2825 17.3793 69.5795 17.3793Z" fill="white"/>
</svg>
